<svg version="1.0" xmlns="http://www.w3.org/2000/svg"
 width="965.3333333333334px" style="transform:scale(1.001,1);" height="543px" viewBox="0 0 320.000000 180.000000"
 preserveAspectRatio="xMidYMid meet">
<g transform="translate(0.000000,180.000000) scale(0.100000,-0.100000)"
fill="#000000" stroke="none">
<path d="M0 905 l0 -895 1600 0 1600 0 0 895 0 895 -1600 0 -1600 0 0 -895z m1843 690
c58 -20 80 -34 115 -72 l43 -48 -4 -95 c-6 -117 -23 -196 -48 -228 -25 -33
-24 -59 4 -73 64 -34 184 -120 195 -140 7 -14 14 -75 16 -151 2 -69 7 -131 10
-137 4 -6 16 -11 26 -11 14 0 21 -12 29 -50 6 -28 24 -77 41 -110 33 -65 38
-114 15 -144 -8 -11 -15 -28 -15 -38 0 -10 -10 -20 -23 -24 -44 -11 -605 0
-617 12 -9 9 -4 14 18 22 17 6 33 7 37 4 4 -4 4 20 1 53 -5 42 -16 72 -35 100
-16 22 -31 50 -35 63 -11 34 -21 27 -35 -27 -15 -61 -24 -69 -81 -73 -43 -3
-45 -4 -51 -41 -4 -25 -2 -41 8 -48 15 -13 18 -33 3 -24 -6 4 -9 -4 -7 -17 2
-23 1 -23 -120 -26 -95 -2 -123 0 -123 10 0 7 19 47 43 88 41 72 127 305 127
346 1 32 46 158 73 200 13 22 50 57 81 79 31 21 56 39 56 39 0 1 -5 17 -10 36
-6 19 -15 57 -20 83 -6 27 -19 60 -30 74 -22 29 -27 98 -7 106 6 3 -7 8 -30
12 -24 4 -50 13 -60 20 -15 11 -15 13 6 25 13 6 42 12 66 12 49 0 57 6 75 63
18 58 55 102 108 130 59 30 67 30 155 0z"/>
</g>
</svg>
